# xmcd
#
# Track frame offsets:
#	150
#	18344
#	34074
#	51660
#	67953
#	85490
#	100200
#	114569
#	130699
#	142445
#
# Disc length: 2064 seconds
#
# Revision: 1
# Processed by: cddbd v1.5.2PL0 Copyright (c) Steve Scherf et al.
# Submitted via: audiograbber 1.83.01
#
DISCID=91080e0a
DTITLE=Various Artist - CDX 590
DYEAR=2014
DGENRE=Country
TTITLE0=Miranda Lambert - Automatic (Single Edit)
TTITLE1=Kellie Pickler - Closer To Nowhere
TTITLE2=David Nail  - Kiss You Tonight
TTITLE3=Kenny Davin Fine - Dreamin'
TTITLE4=Jimmy Eugene - Adios
TTITLE5=Brandon Alan - Different Way
TTITLE6=Matthew Hagee - I Don't Want To Get Adjusted
TTITLE7=Brandon Chase - One
TTITLE8=Chris Cox - Over The Moon
TTITLE9=Vince Hatfield - You Don't Look Good In Blue
EXTD=
EXTT0=
EXTT1=
EXTT2=
EXTT3=
EXTT4=
EXTT5=
EXTT6=
EXTT7=
EXTT8=
EXTT9=
PLAYORDER=
